{"title":"[MARATHI] Take It Easy - Drama x264 MP3 [TMB]","uid":8938455,"size":699217686,"categoryP":"video","categoryS":"movies","magnet":"?xt=urn:btih:3a4c10f3b9a30825705fcb6361fe935289b22414&amp;dn=%5BMARATHI%5D+Take+It+Easy+-+Drama+x264+MP3+%5BTMB%5D&amp;tr=udp%3A%2F%2Ftracker.openbittorrent.com%3A80&amp;tr=udp%3A%2F%2Fopen.demonii.com%3A1337&amp;tr=udp%3A%2F%2Ftracker.coppersurfer.tk%3A6969&amp;tr=udp%3A%2F%2Fexodus.desync.com%3A6969","seeders":1,"leechers":1,"uploader":"SJonam","files":2,"time":1379620295,"description":" &lt;a href=&quot;http://i26.photobucket.com/albums/c119/manojb/vlcsnap-2013-09-19-21h56m35s122.png&quot; rel=&quot;nofollow&quot; target=&quot;_NEW&quot;&gt;http://i26.photobucket.com/albums/c119/manojb/vlcsnap-2013-09-19-21h56m35s122.png&lt;/a&gt; &lt;a href=&quot;\nhttp://i26.photobucket.com/albums/c119/manojb/vlcsnap-2013-09-19-21h54m58s179.png&quot; rel=&quot;nofollow&quot; target=&quot;_NEW&quot;&gt;\nhttp://i26.photobucket.com/albums/c119/manojb/vlcsnap-2013-09-19-21h54m58s179.png&lt;/a&gt; &lt;a href=&quot;\nhttp://i26.photobucket.com/albums/c119/manojb/vlcsnap-2013-09-19-21h55m09s24.png&quot; rel=&quot;nofollow&quot; target=&quot;_NEW&quot;&gt;\nhttp://i26.photobucket.com/albums/c119/manojb/vlcsnap-2013-09-19-21h55m09s24.png&lt;/a&gt; &lt;a href=&quot;\nhttp://i26.photobucket.com/albums/c119/manojb/vlcsnap-2013-09-19-21h55m27s205.png&quot; rel=&quot;nofollow&quot; target=&quot;_NEW&quot;&gt;\nhttp://i26.photobucket.com/albums/c119/manojb/vlcsnap-2013-09-19-21h55m27s205.png&lt;/a&gt; &lt;a href=&quot;\nhttp://i26.photobucket.com/albums/c119/manojb/vlcsnap-2013-09-19-21h56m13s153.png&quot; rel=&quot;nofollow&quot; target=&quot;_NEW&quot;&gt;\nhttp://i26.photobucket.com/albums/c119/manojb/vlcsnap-2013-09-19-21h56m13s153.png&lt;/a&gt;\n\nMedia Info - \nVideo\nFormat                         : AVC\nFormat/Info                    : Advanced Video Codec\nFormat profile                 : &lt;a class=&quot;__cf_email__&quot; href=&quot;/cdn-cgi/l/email-protection&quot; data-cfemail=&quot;b4f9d5dddaf4f8879a84&quot;&gt;[email&amp;#160;protected]&lt;/a&gt;&lt;script cf-hash='f9e31' type=&quot;text/javascript&quot;&gt;\n/* &lt;![CDATA[ */!function(){try{var t=&quot;currentScript&quot;in document?document.currentScript:function(){for(var t=document.getElementsByTagName(&quot;script&quot;),e=t.length;e--;)if(t[e].getAttribute(&quot;cf-hash&quot;))return t[e]}();if(t&amp;&amp;t.previousSibling){var e,r,n,i,c=t.previousSibling,a=c.getAttribute(&quot;data-cfemail&quot;);if(a){for(e=&quot;&quot;,r=parseInt(a.substr(0,2),16),n=2;a.length-n;n+=2)i=parseInt(a.substr(n,2),16)^r,e+=String.fromCharCode(i);e=document.createTextNode(e),c.parentNode.replaceChild(e,c)}}}catch(u){}}();/* ]]&gt; */&lt;/script&gt;\nFormat settings, CABAC         : Yes\nFormat settings, ReFrames      : 1 frame\nCodec ID                       : H264\nDuration                       : 2h 18mn\nBit rate                       : 402 Kbps\nWidth                          : 640 pixels\nHeight                         : 480 pixels\nDisplay aspect ratio           : 4:3\nFrame rate mode                : Variable\nFrame rate                     : 25.000 fps\nColor space                    : YUV\nChroma subsampling             : 4:2:0\nBit depth                      : 8 bits\nScan type                      : Progressive\nBits/(Pixel*Frame)             : 0.052\nStream size                    : 395 MiB (60%)\nWriting library                : x264 core 129\n\nAudio\nFormat                         : MPEG Audio\nFormat version                 : Version 1\nFormat profile                 : Layer 3\nMode                           : Joint stereo\nMode extension                 : MS Stereo\nCodec ID                       : 55\nCodec ID/Hint                  : MP3\nDuration                       : 2h 18mn\nBit rate mode                  : Constant\nBit rate                       : 256 Kbps\nChannel count                  : 2 channels\nSampling rate                  : 44.1 KHz\nCompression mode               : Lossy\nStream size                    : 254 MiB (38%)\nAlignment                      : Aligned on interleaves\nInterleave, duration           : 26 ms (0.65 video frame)\nWriting library                : LAME3.99.5\n\nSample in Torrent...\n\nRipper : Manojvb\n\nSeeding will be very slow for first 8 hours ;)\n\n\nEnjoy!\n","torrent":{"xt":"urn:btih:3a4c10f3b9a30825705fcb6361fe935289b22414","amp;dn":"%5BMARATHI%5D+Take+It+Easy+-+Drama+x264+MP3+%5BTMB%5D","amp;tr":["udp%3A%2F%2Ftracker.openbittorrent.com%3A80","udp%3A%2F%2Fopen.demonii.com%3A1337","udp%3A%2F%2Ftracker.coppersurfer.tk%3A6969","udp%3A%2F%2Fexodus.desync.com%3A6969"],"infoHash":"3a4c10f3b9a30825705fcb6361fe935289b22414","infoHashBuffer":{"type":"Buffer","data":[58,76,16,243,185,163,8,37,112,95,203,99,97,254,147,82,137,178,36,20]},"announce":[],"urlList":[]}}